<?xml version="1.0" encoding="UTF-8"?>
<!DOCTYPE svg PUBLIC "-//W3C//DTD SVG 1.1//EN" "http://www.w3.org/Graphics/SVG/1.1/DTD/svg11.dtd">
<svg xmlns="http://www.w3.org/2000/svg" version="1.1" width="170px" height="2000px" style="shape-rendering:geometricPrecision; text-rendering:geometricPrecision; image-rendering:optimizeQuality; fill-rule:evenodd; clip-rule:evenodd" xmlns:xlink="http://www.w3.org/1999/xlink">
<g><path style="opacity:0.996" fill="#c09ac3" d="M -0.5,-0.5 C 39.1667,-0.5 78.8333,-0.5 118.5,-0.5C 182.348,142.41 184.848,286.41 126,431.5C 107.203,468.558 91.5365,506.891 79,546.5C 53.9383,639.42 46.605,733.753 57,829.5C 61.9258,882.389 71.5925,934.389 86,985.5C 146.686,1133.63 168.353,1287.3 151,1446.5C 141.717,1521.01 120.717,1592.01 88,1659.5C 61.7144,1732.51 57.3811,1806.84 75,1882.5C 84.4719,1923.42 98.9719,1962.42 118.5,1999.5C 78.8333,1999.5 39.1667,1999.5 -0.5,1999.5C -0.5,1332.83 -0.5,666.167 -0.5,-0.5 Z"/></g>
</svg>
