<?xml version="1.0" encoding="UTF-8"?>
<!DOCTYPE svg PUBLIC "-//W3C//DTD SVG 1.1//EN" "http://www.w3.org/Graphics/SVG/1.1/DTD/svg11.dtd">
<svg xmlns="http://www.w3.org/2000/svg" version="1.1" width="120px" height="2000px" style="shape-rendering:geometricPrecision; text-rendering:geometricPrecision; image-rendering:optimizeQuality; fill-rule:evenodd; clip-rule:evenodd" xmlns:xlink="http://www.w3.org/1999/xlink">
<g><path style="opacity:0.994" fill="#c09ac3" d="M -0.5,-0.5 C 23.8333,-0.5 48.1667,-0.5 72.5,-0.5C 103.025,89.7006 114.859,182.367 108,277.5C 104.184,336.06 94.8511,393.727 80,450.5C 68.0665,489.567 57.0665,528.9 47,568.5C 12.1436,730.5 12.4769,892.5 48,1054.5C 57.795,1091.55 67.795,1128.55 78,1165.5C 111.014,1297.66 122.681,1431.66 113,1567.5C 108.76,1617.94 100.093,1667.61 87,1716.5C 76.929,1748.05 67.2623,1779.71 58,1811.5C 42.7582,1877.52 51.2582,1940.18 83.5,1999.5C 55.5,1999.5 27.5,1999.5 -0.5,1999.5C -0.5,1332.83 -0.5,666.167 -0.5,-0.5 Z"/></g>
</svg>
