<?xml version="1.0" encoding="UTF-8"?>
<!DOCTYPE svg PUBLIC "-//W3C//DTD SVG 1.1//EN" "http://www.w3.org/Graphics/SVG/1.1/DTD/svg11.dtd">
<svg xmlns="http://www.w3.org/2000/svg" version="1.1" width="220px" height="2000px" style="shape-rendering:geometricPrecision; text-rendering:geometricPrecision; image-rendering:optimizeQuality; fill-rule:evenodd; clip-rule:evenodd" xmlns:xlink="http://www.w3.org/1999/xlink">
<g><path style="opacity:0.996" fill="#c09ac3" d="M -0.5,-0.5 C 54.5,-0.5 109.5,-0.5 164.5,-0.5C 197.624,69.8452 213.624,144.012 212.5,222C 211.613,308.769 195.446,392.602 164,473.5C 142.262,522.653 123.595,572.986 108,624.5C 73.4927,743.641 68.4927,863.975 93,985.5C 101.512,1023.7 112.846,1061.04 127,1097.5C 138.689,1135.26 148.022,1173.59 155,1212.5C 171.224,1316.04 160.557,1416.71 123,1514.5C 112.971,1539.58 101.971,1564.25 90,1588.5C 65.1113,1651.71 59.1113,1716.71 72,1783.5C 87.8472,1862.17 118.681,1934.17 164.5,1999.5C 109.5,1999.5 54.5,1999.5 -0.5,1999.5C -0.5,1332.83 -0.5,666.167 -0.5,-0.5 Z"/></g>
</svg>
